<svg width="33" height="37" viewBox="0 0 33 37" fill="none" xmlns="http://www.w3.org/2000/svg">
<path d="M19.3672 30.0625H21.1016C21.3316 30.0625 21.5521 29.9711 21.7148 29.8085C21.8774 29.6459 21.9688 29.4253 21.9688 29.1953V13.5859C21.9688 13.3559 21.8774 13.1354 21.7148 12.9727C21.5521 12.8101 21.3316 12.7188 21.1016 12.7188H19.3672C19.1372 12.7188 18.9166 12.8101 18.754 12.9727C18.5914 13.1354 18.5 13.3559 18.5 13.5859V29.1953C18.5 29.4253 18.5914 29.6459 18.754 29.8085C18.9166 29.9711 19.1372 30.0625 19.3672 30.0625ZM31.2188 5.78125H25.2633L22.8063 1.68379C22.498 1.16999 22.0618 0.744835 21.5402 0.44975C21.0187 0.154665 20.4296 -0.000284972 19.8304 3.93447e-07H12.5446C11.9456 -3.53212e-05 11.3568 0.155033 10.8356 0.450106C10.3143 0.74518 9.87836 1.1702 9.57014 1.68379L7.11166 5.78125H1.15625C0.849593 5.78125 0.555497 5.90307 0.338658 6.11991C0.121819 6.33675 0 6.63084 0 6.9375L0 8.09375C0 8.40041 0.121819 8.6945 0.338658 8.91134C0.555497 9.12818 0.849593 9.25 1.15625 9.25H2.3125V33.5312C2.3125 34.4512 2.67796 35.3335 3.32847 35.984C3.97899 36.6345 4.86128 37 5.78125 37H26.5938C27.5137 37 28.396 36.6345 29.0465 35.984C29.697 35.3335 30.0625 34.4512 30.0625 33.5312V9.25H31.2188C31.5254 9.25 31.8195 9.12818 32.0363 8.91134C32.2532 8.6945 32.375 8.40041 32.375 8.09375V6.9375C32.375 6.63084 32.2532 6.33675 32.0363 6.11991C31.8195 5.90307 31.5254 5.78125 31.2188 5.78125ZM12.4181 3.67904C12.4568 3.61472 12.5114 3.56153 12.5768 3.52467C12.6422 3.48781 12.716 3.46854 12.791 3.46875H19.584C19.6589 3.46866 19.7326 3.48799 19.7978 3.52485C19.863 3.5617 19.9176 3.61483 19.9562 3.67904L21.2179 5.78125H11.1571L12.4181 3.67904ZM26.5938 33.5312H5.78125V9.25H26.5938V33.5312ZM11.2734 30.0625H13.0078C13.2378 30.0625 13.4584 29.9711 13.621 29.8085C13.7836 29.6459 13.875 29.4253 13.875 29.1953V13.5859C13.875 13.3559 13.7836 13.1354 13.621 12.9727C13.4584 12.8101 13.2378 12.7188 13.0078 12.7188H11.2734C11.0434 12.7188 10.8229 12.8101 10.6602 12.9727C10.4976 13.1354 10.4062 13.3559 10.4062 13.5859V29.1953C10.4062 29.4253 10.4976 29.6459 10.6602 29.8085C10.8229 29.9711 11.0434 30.0625 11.2734 30.0625Z" fill="#868686"/>
</svg>
